<?xml version="1.0" encoding="iso-8859-1"?>
<!-- Generator: Adobe Illustrator 19.0.0, SVG Export Plug-In . SVG Version: 6.00 Build 0)  -->
<svg version="1.1" id="Layer_1" xmlns="http://www.w3.org/2000/svg" xmlns:xlink="http://www.w3.org/1999/xlink" x="0px" y="0px"
	 viewBox="0 0 320.524 60" style="enable-background:new 0 0 320.524 60;" xml:space="preserve">
<rect x="-72.498" y="-82.125" style="display:none;fill:#11252F;" width="500" height="180"/>
<rect x="-71.16" y="97.658" style="display:none;fill:#189EFF;" width="500" height="180"/>
<g style="display:none;">
	<g style="display:inline;">
		<path style="fill:#A0A0A0;" d="M211.107,380.375c-0.45,0.438-1.002,0.658-1.654,0.658c-0.653,0-1.199-0.225-1.638-0.676
			c-0.439-0.45-0.659-0.996-0.659-1.638s0.22-1.188,0.659-1.638c0.438-0.45,0.984-0.676,1.638-0.676
			c0.652,0,1.204,0.226,1.654,0.676s0.676,1.002,0.676,1.655C211.783,379.39,211.557,379.936,211.107,380.375z"/>
		<path style="fill:#A0A0A0;" d="M218.165,377.859c-2.318-2.251-3.479-5.116-3.479-8.594c0-3.479,1.16-6.35,3.479-8.612
			c2.319-2.262,5.155-3.394,8.511-3.394c2.499,0,4.722,0.613,6.669,1.841s3.36,2.966,4.238,5.217h-4.626
			c-1.262-2.363-3.355-3.545-6.281-3.545c-2.364,0-4.295,0.776-5.792,2.33c-1.497,1.553-2.246,3.607-2.246,6.163
			c0,2.555,0.749,4.609,2.246,6.163c1.497,1.553,3.428,2.33,5.792,2.33c2.926,0,5.02-1.183,6.281-3.546h4.626
			c-0.878,2.251-2.291,3.984-4.238,5.2s-4.17,1.823-6.669,1.823C223.32,381.236,220.484,380.111,218.165,377.859z"/>
		<path style="fill:#A0A0A0;" d="M252.797,381.27c-3.366,0-6.208-1.131-8.527-3.394c-2.318-2.263-3.479-5.134-3.479-8.611
			c0-3.479,1.16-6.35,3.479-8.612c2.319-2.262,5.161-3.394,8.527-3.394c3.365,0,6.202,1.132,8.51,3.394
			c2.308,2.263,3.462,5.134,3.462,8.612c0,3.478-1.154,6.349-3.462,8.611S256.162,381.27,252.797,381.27z M252.78,377.791
			c2.363,0,4.294-0.782,5.791-2.347s2.246-3.625,2.246-6.18c0-2.556-0.749-4.61-2.246-6.163c-1.497-1.554-3.428-2.33-5.791-2.33
			c-2.364,0-4.295,0.776-5.792,2.33c-1.497,1.553-2.246,3.607-2.246,6.163c0,2.555,0.749,4.615,2.246,6.18
			S250.416,377.791,252.78,377.791z"/>
		<path style="fill:#A0A0A0;" d="M293.27,357.563v23.471h-3.85v-16.074l-7.16,16.074h-2.668l-7.192-16.074v16.074h-3.85v-23.471
			h4.153l8.24,18.405l8.206-18.405H293.27z"/>
	</g>
	<g style="display:inline;">
		<polygon style="fill-rule:evenodd;clip-rule:evenodd;fill:#E55425;" points="145.53,383.461 151.77,372.653 137.341,372.653 		"/>
		<polygon style="fill-rule:evenodd;clip-rule:evenodd;fill:#EC8823;" points="151.464,389.958 157.816,398.145 162.542,389.958 
			152.219,389.958 		"/>
		<path style="fill-rule:evenodd;clip-rule:evenodd;fill:#2B3560;" d="M201.747,345.921l-9.003-2.153l-11.585-2.771l-1.664-0.398
			c-0.798-0.227-1.688-0.086-2.394,0.459l-6.229,4.832l-5.203,4.036l-3.207,2.488l-11.053,8.574l-8.143,6.317
			c-0.933,0.72-1.265,1.93-0.914,2.989h4.106h10.323l-5.161,8.94l-1.079,1.868l5.486,7.072h0.754h10.323l-4.727,8.187l2.391,3.082
			c0.912,1.182,2.61,1.4,3.791,0.488l3.683-2.857l11.471-8.899l2.789-2.163l4.525-3.511l9.734-7.552l1.633-1.266
			c0.627-0.485,1.036-1.241,1.049-2.095l0.021-1.292l0.159-9.61l0.136-8.27l0.063-3.825
			C203.842,347.35,203.002,346.219,201.747,345.921z M199.241,352.925c0,1.769-1.429,3.247-3.247,3.247
			c-1.794,0-3.247-1.453-3.247-3.247c0-0.174,0.014-0.344,0.04-0.511c0.244-1.551,1.587-2.737,3.207-2.737
			c1.62,0,2.963,1.186,3.207,2.737C199.227,352.581,199.241,352.751,199.241,352.925z"/>
		<polygon style="fill-rule:evenodd;clip-rule:evenodd;fill:#EC8823;" points="144.119,388.043 144.59,388.043 151.026,388.043 
			148.079,382.939 		"/>
	</g>
	<g style="display:inline;">
		<path style="fill:#FFFFFF;" d="M155.35,380.696v-2.803c0.563-0.495,1.385-1.204,2.465-2.128c1.081-0.923,1.908-1.638,2.482-2.144
			c0.574-0.507,1.289-1.16,2.145-1.959c0.854-0.799,1.52-1.486,1.992-2.061c0.473-0.573,0.956-1.221,1.452-1.941
			c0.923-1.306,1.385-2.611,1.385-3.917c0-2.792-1.329-4.188-3.985-4.188c-1.328,0-2.358,0.422-3.09,1.266
			c-0.732,0.845-1.12,1.976-1.165,3.395h-3.715c0.067-2.566,0.838-4.53,2.313-5.894c1.474-1.361,3.394-2.043,5.758-2.043
			s4.238,0.665,5.623,1.993c1.384,1.328,2.076,3.084,2.076,5.268c0,1.644-0.438,3.208-1.316,4.694
			c-0.473,0.766-0.924,1.446-1.352,2.043s-1.024,1.278-1.789,2.043c-0.766,0.766-1.374,1.362-1.824,1.79s-1.109,1.024-1.976,1.79
			s-1.457,1.295-1.772,1.587h10.705v3.208H155.35z"/>
		<path style="fill:#FFFFFF;" d="M186.891,381.034v-5.133h-12.225v-2.904l11.347-16.277h4.66v15.838h3.141v3.344h-3.141v5.133
			H186.891z M187.06,372.557v-11.921l-7.97,11.921H187.06z"/>
	</g>
	<g style="display:inline;">
		<g>
			<path style="fill:#A0A0A0;" d="M237.435,396.63l-3.668-9.73h1.708l2.87,8.078l2.898-8.078h1.693l-3.653,9.73H237.435z"/>
			<path style="fill:#A0A0A0;" d="M244.267,396.63v-9.73h1.597v9.73H244.267z"/>
			<path style="fill:#A0A0A0;" d="M253.34,386.886v1.246h-3.779v2.954h3.359v1.232h-3.359v3.065h3.779v1.246h-5.376v-9.744H253.34z"
				/>
			<path style="fill:#A0A0A0;" d="M254.795,388.146V386.9h6.79v1.246h-2.59v8.484h-1.596v-8.484H254.795z"/>
			<path style="fill:#A0A0A0;" d="M269.594,386.886h1.596v9.744h-1.596l-4.802-7.266v7.266h-1.597v-9.744h1.597l4.802,7.252V386.886
				z"/>
			<path style="fill:#A0A0A0;" d="M279.855,396.63l-0.7-1.988h-4.074l-0.7,1.988h-1.666l3.486-9.744h1.848l3.486,9.744H279.855z
				 M275.515,393.396h3.206l-1.597-4.577L275.515,393.396z"/>
			<path style="fill:#A0A0A0;" d="M293.295,386.9v9.73h-1.596v-6.664l-2.968,6.664h-1.106l-2.981-6.664v6.664h-1.597v-9.73h1.723
				l3.416,7.631l3.401-7.631H293.295z"/>
		</g>
	</g>
</g>
<g>
	<g>
		<g>
			<path style="fill:#F2860F;" d="M4.362,49.663l-2.91,0.78c-1.044,0.28-1.665,1.354-1.385,2.399
				c0.28,1.044,1.355,1.665,2.399,1.385l2.91-0.78c1.045-0.279,1.665-1.355,1.385-2.399C6.482,50.004,5.407,49.383,4.362,49.663z
				 M39.327,32.191c-0.28-1.045-1.355-1.665-2.399-1.386L8.145,38.518c-1.045,0.28-1.666,1.355-1.386,2.399
				c0.28,1.045,1.355,1.665,2.4,1.385l28.784-7.712C38.987,34.31,39.607,33.235,39.327,32.191z M17.052,31.323L28.82,28.17
				c1.045-0.28,1.665-1.355,1.386-2.399c-0.28-1.045-1.355-1.665-2.4-1.386l-11.767,3.153c-1.044,0.28-1.665,1.355-1.385,2.399
				C14.933,30.982,16.008,31.603,17.052,31.323z M60.254,43.642L48.221,7.728c-1.044-2.911-3.317-4.088-5.877-3.403L35.607,6.13
				c-2.158-4.632-7.39-7.102-12.357-5.771c-4.962,1.329-8.268,6.074-7.817,11.177l-6.736,1.805
				c-2.542,0.681-3.879,3.069-3.392,5.874l2.157,10.621l-0.825,0.221c-1.044,0.28-1.665,1.355-1.385,2.4
				c0.28,1.044,1.355,1.665,2.399,1.385l3.833-1.027c1.044-0.28,1.665-1.355,1.385-2.4c-0.207-0.772-0.849-1.313-1.591-1.429
				L9.11,18.314C8.988,17.8,9.128,17.281,9.71,17.125l6.583-1.764l1.229,4.588c0.28,1.045,1.355,1.665,2.399,1.385
				c1.044-0.28,1.665-1.355,1.385-2.399l-1.23-4.588l12.914-3.46l1.229,4.588c0.28,1.045,1.355,1.665,2.399,1.385
				c1.044-0.28,1.665-1.355,1.385-2.399l-1.229-4.588l6.582-1.764c0.731-0.196,0.949,0.353,1.158,0.863l11.991,35.792
				c0.126,0.467-0.154,0.951-0.621,1.076l-38.16,10.225c-0.472,0.126-0.954-0.163-1.079-0.633l-0.964-4.747l30.583-8.195
				c1.044-0.28,1.665-1.355,1.385-2.399c-0.28-1.045-1.355-1.665-2.4-1.385l-34.423,9.224c-1.044,0.28-1.665,1.354-1.385,2.399
				c0.293,1.093,1.38,1.658,2.456,1.37l0.915,4.508c0.344,2.63,3.403,4.319,5.925,3.643L56.9,49.626
				C59.495,48.93,61.02,46.207,60.254,43.642z M19.311,10.496c0.053-2.965,2.073-5.581,4.952-6.353
				c2.885-0.773,5.945,0.489,7.467,3.026L19.311,10.496z"/>
		</g>
	</g>
	<g>
		<path style="fill:#FFFFFF;" d="M71.597,51.875V8.125h8.643l6.201,33.496l6.201-33.496h8.643v43.75h-6.25V17.354l-6.25,34.521
			h-4.688l-6.25-34.521v34.521H71.597z"/>
		<path style="fill:#FFFFFF;" d="M118.815,52.314c-2.197,0-4.081-0.334-5.652-1.001c-1.57-0.667-2.819-1.644-3.747-2.93
			c-0.928-1.286-1.604-2.795-2.026-4.529c-0.424-1.733-0.635-3.748-0.635-6.042V21.943c0-2.295,0.211-4.297,0.635-6.006
			c0.423-1.709,1.099-3.194,2.026-4.456c0.928-1.261,2.177-2.209,3.747-2.844c1.571-0.635,3.455-0.952,5.652-0.952
			c4.264,0,7.34,1.221,9.229,3.662c1.888,2.441,2.832,5.974,2.832,10.596v15.869c0,2.263-0.216,4.26-0.646,5.994
			c-0.432,1.733-1.111,3.247-2.039,4.541s-2.177,2.279-3.748,2.954C122.871,51.977,120.995,52.314,118.815,52.314z M114.262,45.21
			c0.838,1.318,2.355,1.978,4.553,1.978s3.715-0.659,4.553-1.978c0.839-1.318,1.258-3.263,1.258-5.835V20.381
			c0-2.539-0.415-4.435-1.245-5.688c-0.83-1.253-2.353-1.88-4.565-1.88c-2.214,0-3.735,0.627-4.565,1.88
			c-0.83,1.253-1.245,3.149-1.245,5.688v18.994C113.004,41.947,113.423,43.892,114.262,45.21z"/>
		<path style="fill:#FFFFFF;" d="M136.344,51.875V8.125h4.688l10.938,27.051V8.125h6.25v43.75h-4.443l-11.182-29.102v29.102H136.344
			z"/>
		<path style="fill:#FFFFFF;" d="M161.735,51.875l9.375-43.75h6.25l9.375,43.75h-6.25l-2.344-10.938h-7.813l-2.344,10.938H161.735z
			 M171.11,36.25h6.25l-3.125-18.75L171.11,36.25z"/>
		<path style="fill:#F2860F;" d="M200.406,51.875V8.125h8.643l6.201,33.496l6.201-33.496h8.643v43.75h-6.25V17.354l-6.25,34.521
			h-4.688l-6.25-34.521v34.521H200.406z"/>
		<path style="fill:#F2860F;" d="M236.344,51.875V8.125h17.188v4.688h-10.938v14.062h7.813v4.688h-7.813v15.625h10.938v4.688
			H236.344z"/>
		<path style="fill:#F2860F;" d="M257.364,51.875V8.125h9.692c4.573,0,7.8,0.936,9.681,2.808c1.879,1.872,2.819,5.103,2.819,9.692
			v17.188c0,4.802-0.956,8.346-2.868,10.632c-1.913,2.287-5.14,3.43-9.681,3.43H257.364z M263.614,47.188h3.442
			c1.025,0,1.904-0.093,2.637-0.281c0.732-0.187,1.326-0.529,1.782-1.025c0.455-0.496,0.813-0.968,1.074-1.416
			c0.26-0.447,0.443-1.143,0.549-2.087c0.106-0.944,0.167-1.721,0.184-2.332c0.016-0.61,0.024-1.558,0.024-2.844
			c0-0.423,0-0.74,0-0.952V22.187c0-0.797-0.004-1.432-0.013-1.904c-0.008-0.472-0.032-1.029-0.072-1.672
			c-0.041-0.643-0.103-1.151-0.184-1.526c-0.082-0.374-0.195-0.793-0.342-1.257c-0.146-0.464-0.33-0.826-0.549-1.086
			c-0.221-0.26-0.488-0.533-0.807-0.818c-0.316-0.285-0.684-0.496-1.098-0.635c-0.416-0.138-0.9-0.252-1.453-0.342
			c-0.554-0.089-1.172-0.134-1.855-0.134h-3.32V47.188z"/>
		<path style="fill:#F2860F;" d="M285.319,51.875V8.125h6.25v43.75H285.319z"/>
		<path style="fill:#F2860F;" d="M295.524,51.875l9.375-43.75h6.25l9.375,43.75h-6.25l-2.344-10.938h-7.813l-2.344,10.938H295.524z
			 M304.899,36.25h6.25l-3.125-18.75L304.899,36.25z"/>
	</g>
</g>
<g style="display:none;">
	<path style="display:inline;fill:#FAAC2A;" d="M132.099,169.871c-10.403,0-21.888,0-32.293,0c-0.25,0-0.483,0.116-0.654,0.302
		c-0.202,0.219-0.328,0.535-0.328,0.895v29.697c0.123-0.025,0.248-0.05,0.377-0.071c1.803-0.29,3.178,0.206,4.555,1.197l6.083,3.554
		l-4.61-17.205c-1.84-6.871,7.41-9.661,9.254-2.784l2.27,8.474c0.552-0.431,1.195-0.76,1.911-0.952
		c1.585-0.425,3.292-0.083,4.595,0.881c1.886-2.452,5.374-2.767,7.694-0.843c0.613-0.733,1.346-1.244,2.129-1.554v-20.395
		c0-0.36-0.126-0.676-0.329-0.895C132.582,169.987,132.349,169.871,132.099,169.871z"/>
	<path style="display:inline;fill:#E19926;" d="M132.099,175.629h-16.146v21.069l0.801,2.99c0.552-0.431,1.195-0.76,1.911-0.952
		c1.585-0.425,3.292-0.083,4.595,0.881c1.886-2.452,5.374-2.767,7.694-0.843c0.613-0.733,1.346-1.244,2.129-1.554v-20.395
		c0-0.36-0.126-0.676-0.329-0.895C132.582,175.745,132.349,175.629,132.099,175.629z"/>
	<path style="display:inline;fill:#FFFFFF;" d="M139.689,193.329c-0.526-1.962-2.052-3.277-3.798-3.723v-18.979
		c0-2.313-1.805-4.384-4.176-4.384h-5.807c-0.721-4.842-4.919-8.584-9.955-8.584c-5.032,0-9.233,3.744-9.955,8.584h-5.809
		c-2.372,0-4.175,2.072-4.175,4.384l0.012,30.175c-1.492,2.245-0.295,5.778,2.48,8.121l9.871,8.336
		c1.609,1.361,3.681-1.088,2.072-2.449l-10.24-8.648c-3.302-2.784-0.945-5.383,1.776-3.719l8.663,6.23
		c1.239,0.892,2.879-0.248,2.462-1.808l-5.638-21.042c-0.661-2.471,3.07-3.822,3.962-0.987l3.449,12.874
		c0.591,1.473,3.349,1.009,3.054-1.064c-0.148-1.018,0.492-1.998,1.491-2.265c1.086-0.291,2.21,0.353,2.501,1.442
		c0.22,1.056,1.303,1.568,2.223,1.109c0.535-0.267,1.293-0.867,1.066-1.879c-0.169-0.758,0.61-1.754,1.661-1.895
		c0.871-0.117,1.995,0.404,2.331,1.658c0.304,1.134,0.465,2.547,2.297,2.37c1.945-0.519,0.651-2.319,1.341-3.512
		c0.902-1.561,3.143-1.321,3.761,0.577l1.161,4.332c0.229,0.856,1.109,1.365,1.966,1.137c0.857-0.229,1.366-1.109,1.137-1.966
		L139.689,193.329z M115.953,160.874c3.255,0,6.003,2.309,6.686,5.369h-13.372C109.949,163.18,112.695,160.874,115.953,160.874z
		 M132.676,189.796c-0.765,0.302-1.48,0.801-2.078,1.517c-2.265-1.878-5.67-1.571-7.511,0.823c-1.272-0.942-2.939-1.275-4.486-0.86
		c-0.699,0.187-1.327,0.508-1.865,0.929l-2.216-8.273c-1.801-6.713-11.944-3.989-10.148,2.718l4.5,16.797l-4.825-3.47
		c-1.542-1.11-2.944-1.485-4.815-1.1v-28.25c0-0.551,0.353-1.169,0.96-1.169h5.699v4.956c0,0.888,0.72,1.608,1.608,1.608
		c0.888,0,1.608-0.72,1.608-1.608v-4.956h13.697v4.956c0,0.888,0.72,1.608,1.608,1.608c0.888,0,1.608-0.72,1.608-1.608v-4.956h5.698
		c0.607,0,0.96,0.617,0.96,1.169V189.796z"/>
	<g style="display:inline;">
		<path style="fill:#FFFFFF;" d="M182.852,168.857v37.503h-5.1v-26.452l-7.801,18.802h-1.6l-7.75-18.702v26.352h-5.05v-37.503h5.05
			l8.551,20.852l8.601-20.852H182.852z"/>
		<path style="fill:#FFFFFF;" d="M208.202,178.707v17.951c0,6.701-3.7,10.151-10.95,10.151c-6.251,0-10.301-3.501-10.301-10.151
			v-17.951c0-6.75,3.9-10.201,10.9-10.201C204.251,168.507,208.202,172.007,208.202,178.707z M203.001,178.408
			c0-3.2-2.35-4.8-5.2-4.8c-2.95,0-5.65,1.15-5.65,5.35v17.701c0,3.15,2.2,5.001,5.101,5.001c2.95,0,5.75-0.851,5.75-4.801V178.408z
			"/>
		<path style="fill:#FFFFFF;" d="M234.401,168.857v37.503h-5.099l-12.051-25.402v25.402h-5.101v-37.503h5.101l12.051,25.352v-25.352
			H234.401z"/>
		<path style="fill:#FFFFFF;" d="M255.102,198.009h-10.501l-2.2,8.351h-4.95l10.101-37.503h4.551l10.2,37.503h-5.051
			L255.102,198.009z M253.801,192.958l-3.95-15.551l-4.05,15.551H253.801z"/>
	</g>
</g>
<g style="display:none;">
	<path style="display:inline;fill:#A0A0A0;" d="M53.703,356.958v25.02h-4.104v-17.136l-7.632,17.136h-2.844l-7.668-17.136v17.136
		h-4.104v-25.02h4.428l8.784,19.619l8.748-19.619H53.703z"/>
	<path style="display:inline;fill:#A0A0A0;" d="M70.532,382.23c-3.588,0-6.618-1.206-9.09-3.618
		c-2.472-2.412-3.708-5.472-3.708-9.18s1.236-6.769,3.708-9.18c2.472-2.412,5.502-3.618,9.09-3.618s6.612,1.206,9.072,3.618
		c2.459,2.411,3.69,5.472,3.69,9.18s-1.23,6.768-3.69,9.18C77.144,381.024,74.12,382.23,70.532,382.23z M70.514,378.522
		c2.52,0,4.578-0.834,6.174-2.502c1.596-1.668,2.394-3.864,2.394-6.588s-0.798-4.914-2.394-6.57
		c-1.597-1.656-3.654-2.483-6.174-2.483s-4.578,0.827-6.174,2.483c-1.596,1.656-2.394,3.847-2.394,6.57s0.798,4.92,2.394,6.588
		C65.936,377.688,67.994,378.522,70.514,378.522z"/>
	<path style="display:inline;fill:#A0A0A0;" d="M103.778,356.922h4.104v25.056h-4.104l-12.348-18.684v18.684h-4.104v-25.056h4.104
		l12.348,18.647V356.922z"/>
	<path style="display:inline;fill:#A0A0A0;" d="M130.166,381.978l-1.8-5.112H117.89l-1.8,5.112h-4.284l8.964-25.056h4.752
		l8.964,25.056H130.166z M119.006,373.662h8.244l-4.104-11.771L119.006,373.662z"/>
</g>
</svg>
